<svg width="25" height="22" viewBox="0 0 25 22" fill="none" xmlns="http://www.w3.org/2000/svg">
<path fill-rule="evenodd" clip-rule="evenodd" d="M23.5 1.375H14.5V9.625H23.5V1.375ZM13 0V11H25V0H13Z" fill="white"/>
<path fill-rule="evenodd" clip-rule="evenodd" d="M7 0L14 11H0L7 0ZM2.48113 9.70707H11.5189L7 2.60599L2.48113 9.70707Z" fill="white"/>
<path fill-rule="evenodd" clip-rule="evenodd" d="M13 20.5C15.4853 20.5 17.5 18.4853 17.5 16C17.5 13.5147 15.4853 11.5 13 11.5C10.5147 11.5 8.5 13.5147 8.5 16C8.5 18.4853 10.5147 20.5 13 20.5ZM13 22C16.3137 22 19 19.3137 19 16C19 12.6863 16.3137 10 13 10C9.68629 10 7 12.6863 7 16C7 19.3137 9.68629 22 13 22Z" fill="white"/>
</svg>
