<svg width="580" height="512" viewBox="0 0 580 512" fill="none" xmlns="http://www.w3.org/2000/svg">
<path d="M4 12C4 5.92487 8.92487 1 15 1H185C236.362 1 278 42.6375 278 94V187H97C45.6375 187 4 145.362 4 94V12Z" fill="url(#paint0_linear_310_321)"/>
<rect x="38" y="45" width="485" height="379" rx="10" fill="#FAFAFA"/>
<path d="M38 53C38 48.5817 41.5817 45 46 45H515C519.418 45 523 48.5817 523 53V69H38V53Z" fill="#6333DE"/>
<circle cx="6" cy="6" r="6" transform="matrix(1 0 0 -1 446 63)" fill="white"/>
<circle cx="6" cy="6" r="6" transform="matrix(1 0 0 -1 469 63)" fill="white"/>
<circle cx="6" cy="6" r="6" transform="matrix(1 0 0 -1 492 63)" fill="white"/>
<path d="M67.0289 52.456V53.728H62.6249V56.056H66.4889V57.268H62.6249V61H61.1129V52.456H67.0289ZM69.4502 52.42V53.764H68.0822V52.42H69.4502ZM69.4502 54.808V61H68.0822V54.808H69.4502ZM72.3447 52.456V61H70.9887V52.456H72.3447ZM79.3792 59.068C79.2232 59.74 78.8872 60.268 78.3832 60.64C77.8792 61.024 77.2672 61.204 76.5712 61.204C75.6352 61.204 74.8912 60.904 74.3392 60.304C73.7872 59.704 73.5232 58.924 73.5232 57.976C73.5232 57.016 73.7992 56.212 74.3632 55.576C74.9272 54.952 75.6472 54.628 76.5232 54.628C77.4232 54.628 78.1432 54.94 78.6712 55.564C79.1992 56.188 79.4632 57.028 79.4632 58.096V58.24H74.8912C74.9032 58.864 75.0592 59.356 75.3592 59.692C75.6472 60.028 76.0672 60.196 76.5952 60.196C76.9672 60.196 77.2672 60.112 77.5072 59.932C77.7472 59.752 77.9272 59.464 78.0712 59.068H79.3792ZM78.0952 57.328C78.0472 56.812 77.8912 56.404 77.6032 56.104C77.3152 55.804 76.9552 55.648 76.5112 55.648C76.0552 55.648 75.6952 55.792 75.4192 56.08C75.1432 56.368 74.9752 56.788 74.9152 57.328H78.0952ZM89.459 58.66C89.363 59.428 89.051 60.028 88.547 60.484C88.031 60.94 87.383 61.156 86.615 61.156C85.679 61.156 84.947 60.868 84.395 60.28C83.843 59.692 83.567 58.924 83.567 57.964C83.567 56.944 83.843 56.128 84.395 55.528C84.947 54.928 85.703 54.616 86.651 54.616C87.443 54.616 88.079 54.82 88.559 55.216C89.039 55.624 89.327 56.176 89.411 56.884H88.055C87.971 56.5 87.815 56.2 87.575 55.984C87.335 55.78 87.023 55.672 86.663 55.672C86.135 55.672 85.715 55.876 85.415 56.272C85.103 56.668 84.959 57.208 84.959 57.892C84.959 58.588 85.103 59.116 85.391 59.5C85.679 59.884 86.087 60.076 86.615 60.076C87.023 60.076 87.347 59.956 87.611 59.716C87.875 59.476 88.043 59.116 88.115 58.66H89.459ZM93.379 54.628C94.315 54.628 95.071 54.928 95.635 55.516C96.187 56.116 96.475 56.908 96.475 57.904C96.475 58.912 96.187 59.716 95.635 60.304C95.083 60.904 94.327 61.192 93.379 61.192C92.407 61.192 91.639 60.904 91.075 60.304C90.499 59.716 90.223 58.912 90.223 57.904C90.223 56.908 90.499 56.116 91.075 55.516C91.651 54.928 92.419 54.628 93.379 54.628ZM93.355 55.708C92.803 55.708 92.383 55.912 92.071 56.296C91.759 56.692 91.603 57.232 91.603 57.904C91.603 58.6 91.759 59.152 92.071 59.536C92.383 59.932 92.815 60.124 93.367 60.124C93.895 60.124 94.315 59.932 94.627 59.536C94.939 59.14 95.095 58.588 95.095 57.892C95.095 57.22 94.939 56.68 94.627 56.296C94.315 55.912 93.895 55.708 93.355 55.708ZM98.9323 54.808V55.72C99.4243 55 100.108 54.64 100.984 54.64C101.68 54.64 102.208 54.832 102.556 55.216C102.904 55.6 103.084 56.152 103.084 56.872V61H101.716V57.4C101.716 57.16 101.704 56.956 101.68 56.788C101.656 56.62 101.596 56.452 101.524 56.284C101.452 56.116 101.332 55.996 101.164 55.912C100.996 55.828 100.78 55.78 100.516 55.78C99.5083 55.78 99.0043 56.416 99.0043 57.664V61H97.6363V54.808H98.9323ZM103.891 54.808H105.379L106.963 59.572L108.487 54.808H109.903L107.683 61.012H106.147L103.891 54.808ZM116.282 59.068C116.126 59.74 115.79 60.268 115.286 60.64C114.782 61.024 114.17 61.204 113.474 61.204C112.538 61.204 111.794 60.904 111.242 60.304C110.69 59.704 110.426 58.924 110.426 57.976C110.426 57.016 110.702 56.212 111.266 55.576C111.83 54.952 112.55 54.628 113.426 54.628C114.326 54.628 115.046 54.94 115.574 55.564C116.102 56.188 116.366 57.028 116.366 58.096V58.24H111.794C111.806 58.864 111.962 59.356 112.262 59.692C112.55 60.028 112.97 60.196 113.498 60.196C113.87 60.196 114.17 60.112 114.41 59.932C114.65 59.752 114.83 59.464 114.974 59.068H116.282ZM114.998 57.328C114.95 56.812 114.794 56.404 114.506 56.104C114.218 55.804 113.858 55.648 113.414 55.648C112.958 55.648 112.598 55.792 112.322 56.08C112.046 56.368 111.878 56.788 111.818 57.328H114.998ZM120.91 54.688V55.996C120.67 55.972 120.502 55.96 120.43 55.96C119.23 55.96 118.642 56.74 118.642 58.276V61H117.286V54.808H118.57V56.044C119.002 55.132 119.698 54.664 120.646 54.664L120.91 54.688ZM124.648 54.808V55.804H123.4V59.068C123.4 59.26 123.4 59.404 123.412 59.476C123.412 59.548 123.436 59.632 123.484 59.728C123.52 59.824 123.592 59.884 123.688 59.908C123.784 59.944 123.928 59.956 124.108 59.956C124.324 59.956 124.504 59.956 124.648 59.932V61.012C124.372 61.048 124.06 61.06 123.724 61.06C123.484 61.06 123.268 61.048 123.088 61.012C122.908 60.976 122.764 60.928 122.644 60.88C122.524 60.832 122.416 60.76 122.344 60.64C122.26 60.52 122.2 60.424 122.152 60.352C122.104 60.28 122.08 60.136 122.056 59.944C122.032 59.752 122.032 59.608 122.032 59.512V58.984V58.912V58.84V58.756V55.804H121V54.808H122.032V52.948H123.4V54.808H124.648ZM131.164 59.068C131.008 59.74 130.672 60.268 130.168 60.64C129.664 61.024 129.052 61.204 128.356 61.204C127.42 61.204 126.676 60.904 126.124 60.304C125.572 59.704 125.308 58.924 125.308 57.976C125.308 57.016 125.584 56.212 126.148 55.576C126.712 54.952 127.432 54.628 128.308 54.628C129.208 54.628 129.928 54.94 130.456 55.564C130.984 56.188 131.248 57.028 131.248 58.096V58.24H126.676C126.688 58.864 126.844 59.356 127.144 59.692C127.432 60.028 127.852 60.196 128.38 60.196C128.752 60.196 129.052 60.112 129.292 59.932C129.532 59.752 129.712 59.464 129.856 59.068H131.164ZM129.88 57.328C129.832 56.812 129.676 56.404 129.388 56.104C129.1 55.804 128.74 55.648 128.296 55.648C127.84 55.648 127.48 55.792 127.204 56.08C126.928 56.368 126.76 56.788 126.7 57.328H129.88ZM135.792 54.688V55.996C135.552 55.972 135.384 55.96 135.312 55.96C134.112 55.96 133.524 56.74 133.524 58.276V61H132.168V54.808H133.452V56.044C133.884 55.132 134.58 54.664 135.528 54.664L135.792 54.688Z" fill="white"/>
<rect x="146" y="89" width="366" height="284" rx="7" fill="#F4EFFF"/>
<rect x="171" y="103" width="318" height="8" rx="3" fill="#DED0FD"/>
<rect x="171" y="123" width="243" height="8" rx="3" fill="#DED0FD"/>
<rect x="171" y="143" width="243" height="8" rx="3" fill="#DED0FD"/>
<rect x="48" y="82" width="93" height="8" rx="4" fill="#DED0FD"/>
<rect x="78" y="110" width="63" height="8" rx="4" fill="#DED0FD"/>
<rect x="60" y="138" width="81" height="8" rx="4" fill="#DED0FD"/>
<rect x="52" y="166" width="89" height="8" rx="4" fill="#DED0FD"/>
<rect x="48" y="194" width="93" height="8" rx="4" fill="#DED0FD"/>
<rect x="78" y="222" width="63" height="8" rx="4" fill="#DED0FD"/>
<rect x="78" y="250" width="63" height="8" rx="4" fill="#DED0FD"/>
<rect x="214" y="178" width="97" height="8" rx="3" fill="#DED0FD"/>
<rect x="175" y="166" width="32" height="32" rx="2" fill="#DED0FD"/>
<rect x="317" y="265" width="229" height="175" rx="7" stroke="#6333DE" stroke-width="3" stroke-linecap="round" stroke-dasharray="12 12"/>
<rect x="351.5" y="295.5" width="228" height="174" rx="6.5" fill="#D9E4FF" stroke="url(#paint1_linear_310_321)"/>
<g filter="url(#filter0_d_310_321)">
<g opacity="0.3">
<path opacity="0.3" d="M231.709 261.817C229.176 261.815 226.747 260.808 224.956 259.017C223.165 257.226 222.158 254.797 222.155 252.264V239H179.467C176.161 239 172.99 240.314 170.652 242.652C168.314 244.99 167 248.161 167 251.467V326.623C167.005 329.927 168.321 333.093 170.658 335.427C172.996 337.761 176.164 339.072 179.467 339.072H230.713C234.016 339.072 237.184 337.761 239.522 335.427C241.859 333.093 243.175 329.927 243.18 326.623V261.817H231.709Z" fill="#6333DE"/>
</g>
<path d="M243.18 261.817H231.708C229.176 261.815 226.747 260.808 224.956 259.017C223.165 257.226 222.158 254.797 222.155 252.264V239L243.18 261.817Z" fill="#6333DE"/>
<path d="M227.506 308.884H179.675C179.214 308.884 178.772 308.701 178.446 308.375C178.121 308.049 177.938 307.607 177.938 307.146C177.939 306.686 178.122 306.246 178.448 305.921C178.774 305.596 179.215 305.414 179.675 305.414H227.506C227.965 305.414 228.406 305.596 228.731 305.921C229.056 306.246 229.238 306.687 229.238 307.146C229.239 307.374 229.195 307.6 229.108 307.811C229.021 308.022 228.893 308.213 228.732 308.375C228.572 308.536 228.38 308.664 228.17 308.751C227.959 308.839 227.734 308.884 227.506 308.884Z" fill="#6333DE"/>
<path d="M227.506 289.314H179.675C179.215 289.314 178.774 289.132 178.448 288.807C178.122 288.482 177.939 288.041 177.938 287.581C177.938 287.121 178.121 286.679 178.446 286.353C178.772 286.027 179.214 285.844 179.675 285.844H227.506C227.734 285.844 227.959 285.889 228.17 285.976C228.38 286.064 228.572 286.192 228.732 286.353C228.893 286.514 229.021 286.706 229.108 286.917C229.195 287.128 229.239 287.353 229.238 287.581C229.238 288.041 229.056 288.482 228.731 288.807C228.406 289.132 227.965 289.314 227.506 289.314Z" fill="#6333DE"/>
<path d="M227.506 299.099H179.675C179.214 299.099 178.772 298.916 178.446 298.59C178.121 298.264 177.938 297.822 177.938 297.362C177.939 296.902 178.122 296.461 178.448 296.136C178.774 295.811 179.215 295.629 179.675 295.629H227.506C227.965 295.629 228.406 295.811 228.731 296.136C229.056 296.461 229.238 296.902 229.238 297.362C229.239 297.589 229.195 297.815 229.108 298.026C229.021 298.237 228.893 298.428 228.732 298.59C228.572 298.751 228.38 298.879 228.17 298.967C227.959 299.054 227.734 299.099 227.506 299.099Z" fill="#6333DE"/>
<path d="M208.64 279.529H179.675C179.215 279.529 178.774 279.347 178.448 279.022C178.122 278.697 177.939 278.257 177.938 277.797C177.938 277.336 178.121 276.894 178.446 276.568C178.772 276.242 179.214 276.059 179.675 276.059H208.64C209.1 276.06 209.541 276.244 209.866 276.57C210.191 276.895 210.373 277.337 210.373 277.797C210.372 278.256 210.189 278.696 209.864 279.02C209.539 279.345 209.099 279.528 208.64 279.529Z" fill="#6333DE"/>
<path d="M208.64 269.745H179.675C179.215 269.745 178.774 269.562 178.448 269.237C178.122 268.912 177.939 268.472 177.938 268.012C177.938 267.551 178.121 267.109 178.446 266.783C178.772 266.457 179.214 266.274 179.675 266.274H208.64C209.1 266.276 209.541 266.459 209.866 266.785C210.191 267.111 210.373 267.552 210.373 268.012C210.372 268.471 210.189 268.911 209.864 269.236C209.539 269.56 209.099 269.743 208.64 269.745Z" fill="#6333DE"/>
<path d="M252.219 318.043H194.288C190.179 318.043 186.848 321.374 186.848 325.484V342.755C186.848 346.865 190.179 350.196 194.288 350.196H252.219C256.328 350.196 259.659 346.865 259.659 342.755V325.484C259.659 321.374 256.328 318.043 252.219 318.043Z" fill="#6333DE"/>
<path d="M205.851 337.858V341.226H202.367V337.858H205.851Z" fill="white"/>
<path d="M210.977 336.339V341.226H207.608V327.295H213.066C214.72 327.295 215.985 327.707 216.851 328.527C217.29 328.958 217.632 329.477 217.855 330.049C218.079 330.622 218.179 331.235 218.148 331.849C218.165 332.659 217.965 333.459 217.569 334.166C217.165 334.857 216.565 335.413 215.846 335.764C214.978 336.174 214.025 336.373 213.066 336.343L210.977 336.339ZM214.72 331.849C214.72 330.614 214.044 329.996 212.691 329.996H210.977V333.624H212.691C214.044 333.636 214.72 333.045 214.72 331.849Z" fill="white"/>
<path d="M231.459 337.868C230.878 338.921 230.002 339.781 228.938 340.342C227.741 340.955 226.41 341.259 225.065 341.226H219.807V327.295H225.065C226.411 327.261 227.744 327.559 228.948 328.162C230.009 328.71 230.883 329.561 231.459 330.608C232.061 331.719 232.365 332.967 232.339 334.231C232.364 335.499 232.061 336.751 231.459 337.868ZM227.836 337.168C228.212 336.781 228.504 336.321 228.692 335.815C228.881 335.309 228.961 334.769 228.929 334.231C228.961 333.693 228.881 333.154 228.693 332.649C228.504 332.144 228.212 331.684 227.836 331.298C226.993 330.559 225.892 330.182 224.773 330.251H223.175V338.21H224.773C225.891 338.278 226.991 337.904 227.836 337.168Z" fill="white"/>
<path d="M243.332 327.295V329.978H237.62V333.031H242.03V335.593H237.62V341.226H234.247V327.295H243.332Z" fill="white"/>
<path d="M226.659 266.274H218.468C217.04 266.274 215.883 267.432 215.883 268.859V277.051C215.883 278.478 217.04 279.636 218.468 279.636H226.659C228.087 279.636 229.244 278.478 229.244 277.051V268.859C229.244 267.432 228.087 266.274 226.659 266.274Z" fill="#6333DE"/>
</g>
<g filter="url(#filter1_d_310_321)">
<g opacity="0.3">
<path opacity="0.3" d="M475.123 326.327C473.865 326.326 472.66 325.826 471.77 324.937C470.881 324.048 470.381 322.842 470.38 321.585V315H449.191C448.378 315 447.572 315.16 446.821 315.47C446.07 315.781 445.388 316.237 444.813 316.812C444.238 317.387 443.782 318.069 443.47 318.82C443.159 319.571 442.999 320.376 442.999 321.189V358.499C442.999 359.312 443.159 360.117 443.47 360.868C443.782 361.619 444.238 362.302 444.813 362.876C445.388 363.451 446.07 363.907 446.821 364.218C447.572 364.529 448.378 364.689 449.191 364.688H474.628C475.441 364.688 476.246 364.528 476.997 364.217C477.747 363.906 478.43 363.45 479.005 362.876C479.579 362.301 480.035 361.619 480.346 360.868C480.657 360.117 480.817 359.312 480.817 358.499V326.327H475.123Z" fill="#0072FF"/>
</g>
<path d="M480.817 326.327H475.122C473.865 326.326 472.659 325.826 471.77 324.937C470.881 324.048 470.381 322.842 470.38 321.585V315L480.817 326.327Z" fill="#0072FF"/>
<path d="M473.036 334.258H449.291C449.063 334.258 448.844 334.167 448.683 334.006C448.521 333.844 448.431 333.626 448.431 333.397C448.43 333.284 448.452 333.172 448.495 333.068C448.539 332.963 448.602 332.868 448.682 332.788C448.762 332.708 448.857 332.644 448.961 332.601C449.066 332.557 449.178 332.535 449.291 332.535H473.036C473.264 332.535 473.484 332.626 473.646 332.788C473.807 332.949 473.898 333.169 473.898 333.397C473.898 333.626 473.806 333.845 473.645 334.006C473.483 334.167 473.264 334.258 473.036 334.258Z" fill="#0072FF"/>
<path d="M473.036 339.403H449.291C449.063 339.403 448.844 339.312 448.683 339.151C448.521 338.989 448.431 338.771 448.431 338.543C448.43 338.429 448.452 338.317 448.495 338.213C448.539 338.108 448.602 338.013 448.682 337.933C448.762 337.853 448.857 337.789 448.961 337.746C449.066 337.702 449.178 337.68 449.291 337.68H473.036C473.264 337.68 473.484 337.771 473.646 337.933C473.807 338.094 473.898 338.314 473.898 338.543C473.898 338.771 473.806 338.99 473.645 339.151C473.483 339.312 473.264 339.403 473.036 339.403Z" fill="#0072FF"/>
<path d="M473.036 344.547H449.291C449.178 344.547 449.066 344.525 448.961 344.482C448.857 344.438 448.762 344.375 448.682 344.295C448.602 344.215 448.539 344.12 448.495 344.015C448.452 343.91 448.43 343.798 448.431 343.685C448.431 343.457 448.521 343.238 448.683 343.077C448.844 342.915 449.063 342.825 449.291 342.825H473.036C473.264 342.825 473.483 342.915 473.645 343.077C473.806 343.238 473.898 343.457 473.898 343.685C473.898 343.914 473.807 344.133 473.646 344.295C473.484 344.457 473.264 344.547 473.036 344.547Z" fill="#0072FF"/>
<path d="M463.67 349.693H449.291C449.178 349.693 449.066 349.67 448.961 349.627C448.857 349.584 448.762 349.52 448.682 349.44C448.602 349.36 448.539 349.265 448.495 349.16C448.452 349.055 448.43 348.943 448.431 348.83C448.431 348.602 448.521 348.383 448.683 348.222C448.844 348.061 449.063 347.97 449.291 347.97H463.67C463.898 347.97 464.117 348.061 464.278 348.222C464.44 348.383 464.53 348.602 464.53 348.83C464.531 348.943 464.509 349.055 464.466 349.16C464.422 349.265 464.359 349.36 464.279 349.44C464.199 349.52 464.104 349.584 464 349.627C463.895 349.67 463.783 349.693 463.67 349.693Z" fill="#0072FF"/>
<path d="M485.306 354.24H456.547C454.507 354.24 452.854 355.893 452.854 357.933V366.508C452.854 368.548 454.507 370.201 456.547 370.201H485.306C487.346 370.201 489 368.548 489 366.508V357.933C489 355.893 487.346 354.24 485.306 354.24Z" fill="#0072FF"/>
<path d="M460.53 364.077V365.749H458.798V364.077H460.53Z" fill="white"/>
<path d="M467.185 364.081C466.897 364.604 466.462 365.031 465.934 365.309C465.34 365.613 464.679 365.764 464.011 365.749H461.398V358.833H464.011C464.679 358.816 465.341 358.964 465.939 359.263C466.465 359.536 466.898 359.958 467.185 360.477C467.483 361.029 467.632 361.649 467.62 362.276C467.632 362.905 467.482 363.526 467.185 364.081ZM465.387 363.734C465.574 363.542 465.718 363.313 465.812 363.062C465.905 362.811 465.945 362.543 465.929 362.276C465.945 362.009 465.905 361.741 465.812 361.49C465.719 361.24 465.574 361.011 465.387 360.82C464.968 360.452 464.42 360.266 463.864 360.3H463.075V364.251H463.866C464.421 364.285 464.967 364.099 465.387 363.734Z" fill="white"/>
</g>
<path d="M473.477 359.479C474.025 359.791 474.478 360.245 474.787 360.794C475.111 361.374 475.276 362.03 475.266 362.694C475.277 363.36 475.112 364.017 474.787 364.598C474.477 365.15 474.022 365.606 473.472 365.918C472.912 366.238 472.277 366.403 471.632 366.397C470.987 366.403 470.353 366.238 469.792 365.918C469.242 365.606 468.788 365.15 468.48 364.598C468.154 364.017 467.989 363.36 468.001 362.694C467.988 362.029 468.154 361.374 468.48 360.794C468.79 360.245 469.244 359.79 469.792 359.479C470.353 359.16 470.987 358.994 471.632 359C472.278 358.994 472.915 359.159 473.477 359.479ZM470.267 361.18C469.913 361.603 469.734 362.144 469.764 362.694C469.733 363.242 469.913 363.781 470.267 364.201C470.439 364.388 470.65 364.535 470.885 364.632C471.12 364.728 471.373 364.773 471.627 364.761C471.88 364.772 472.133 364.727 472.367 364.631C472.601 364.534 472.812 364.387 472.983 364.201C473.338 363.781 473.52 363.242 473.491 362.694C473.52 362.146 473.34 361.608 472.988 361.187C472.816 361 472.605 360.853 472.37 360.756C472.135 360.659 471.881 360.615 471.627 360.627C471.374 360.615 471.121 360.658 470.886 360.754C470.651 360.85 470.44 360.995 470.267 361.18Z" fill="white"/>
<path d="M481.781 359.756C482.389 360.25 482.802 360.943 482.948 361.713H481.103C480.979 361.394 480.761 361.12 480.478 360.927C480.18 360.733 479.83 360.634 479.474 360.642C479.239 360.635 479.006 360.681 478.792 360.778C478.578 360.876 478.389 361.021 478.241 361.203C477.907 361.629 477.737 362.161 477.762 362.702C477.737 363.241 477.907 363.771 478.241 364.195C478.391 364.375 478.58 364.518 478.793 364.614C479.007 364.71 479.24 364.756 479.474 364.748C479.83 364.757 480.18 364.658 480.478 364.463C480.759 364.273 480.977 364.004 481.103 363.689H482.948C482.799 364.456 482.386 365.147 481.781 365.641C481.129 366.139 480.324 366.393 479.505 366.36C478.86 366.374 478.223 366.213 477.661 365.895C477.135 365.59 476.708 365.139 476.432 364.597C476.135 364.003 475.987 363.345 476.001 362.681C475.987 362.016 476.135 361.359 476.432 360.764C476.708 360.222 477.135 359.772 477.661 359.466C478.223 359.148 478.86 358.988 479.505 359.001C480.329 358.979 481.134 359.246 481.781 359.756Z" fill="white"/>
<g filter="url(#filter2_d_310_321)">
<g opacity="0.3">
<path opacity="0.3" d="M406.124 326.327C404.866 326.326 403.661 325.826 402.771 324.937C401.882 324.048 401.382 322.842 401.381 321.585V315H380.189C378.548 315 376.973 315.652 375.813 316.813C374.652 317.973 374 319.548 374 321.189V358.499C374 360.141 374.652 361.715 375.813 362.876C376.973 364.036 378.548 364.688 380.189 364.688H405.627C407.268 364.688 408.842 364.036 410.003 362.876C411.164 361.715 411.816 360.141 411.816 358.499V326.327H406.124Z" fill="#00C650"/>
</g>
<path d="M411.816 326.327H406.123C404.866 326.326 403.66 325.826 402.771 324.937C401.882 324.048 401.382 322.842 401.381 321.585V315L411.816 326.327Z" fill="#00C650"/>
<path d="M416.305 354.24H387.546C385.506 354.24 383.853 355.893 383.853 357.933V366.508C383.853 368.548 385.506 370.201 387.546 370.201H416.305C418.345 370.201 419.999 368.548 419.999 366.508V357.933C419.999 355.893 418.345 354.24 416.305 354.24Z" fill="#00C650"/>
<path d="M394.109 364.077V365.749H392.377V364.077H394.109Z" fill="white"/>
<path d="M399.175 365.749L397.719 363.596L396.465 365.749H394.549L396.76 362.188L394.48 358.833H396.465L397.884 360.916L399.108 358.833H401.015L398.834 362.315L401.162 365.749H399.175Z" fill="white"/>
<path d="M406.499 364.81C406.301 365.128 406.016 365.382 405.678 365.544C405.267 365.737 404.816 365.83 404.363 365.818C403.678 365.846 403.003 365.646 402.444 365.25C402.197 365.064 401.995 364.825 401.853 364.551C401.711 364.277 401.632 363.974 401.623 363.665H403.403C403.416 363.898 403.515 364.118 403.682 364.281C403.847 364.436 404.067 364.518 404.294 364.511C404.386 364.517 404.478 364.504 404.565 364.473C404.653 364.443 404.733 364.396 404.802 364.334C404.863 364.275 404.911 364.203 404.944 364.124C404.976 364.045 404.991 363.96 404.988 363.874C404.99 363.793 404.976 363.712 404.947 363.637C404.917 363.561 404.872 363.493 404.816 363.435C404.694 363.312 404.549 363.213 404.39 363.145C404.223 363.072 403.988 362.982 403.686 362.876C403.32 362.755 402.962 362.61 402.615 362.441C402.329 362.294 402.084 362.08 401.902 361.816C401.689 361.496 401.585 361.118 401.603 360.735C401.594 360.355 401.704 359.983 401.915 359.668C402.133 359.36 402.434 359.12 402.782 358.978C403.184 358.814 403.616 358.736 404.05 358.748C404.708 358.711 405.359 358.906 405.89 359.297C406.116 359.481 406.301 359.71 406.433 359.969C406.565 360.229 406.642 360.513 406.658 360.804H404.848C404.828 360.6 404.74 360.409 404.599 360.261C404.527 360.192 404.442 360.139 404.349 360.104C404.256 360.069 404.156 360.054 404.057 360.059C403.884 360.051 403.715 360.106 403.581 360.215C403.519 360.274 403.47 360.345 403.439 360.425C403.408 360.504 403.395 360.59 403.401 360.675C403.398 360.83 403.455 360.979 403.562 361.091C403.677 361.211 403.814 361.306 403.967 361.37C404.13 361.441 404.365 361.533 404.671 361.643C405.044 361.765 405.408 361.914 405.759 362.089C406.045 362.244 406.292 362.463 406.481 362.729C406.695 363.053 406.802 363.437 406.784 363.826C406.781 364.174 406.683 364.515 406.499 364.81Z" fill="white"/>
<path d="M409.38 364.468H411.62V365.749H407.71V358.833H409.384L409.38 364.468Z" fill="white"/>
<path d="M401.344 349.693H384.481C383.02 349.693 381.831 348.239 381.831 346.45V334.216C381.831 332.429 383.02 330.975 384.481 330.975H401.351C402.809 330.975 403.998 332.429 403.998 334.216V346.45C403.991 348.239 402.802 349.693 401.344 349.693ZM384.481 332.631C383.765 332.631 383.186 333.342 383.186 334.216V346.45C383.186 347.324 383.765 348.034 384.481 348.034H401.351C402.064 348.034 402.643 347.324 402.643 346.45V334.216C402.643 333.342 402.064 332.631 401.351 332.631H384.481Z" fill="#00C650"/>
<path d="M403.315 342.326H382.503V343.984H403.315V342.326Z" fill="#00C650"/>
<path d="M403.315 336.64H382.503V338.299H403.315V336.64Z" fill="#00C650"/>
<path d="M397.983 331.804H396.325V348.862H397.983V331.804Z" fill="#00C650"/>
<path d="M389.49 331.804H387.832V348.862H389.49V331.804Z" fill="#00C650"/>
</g>
<g filter="url(#filter3_d_310_321)">
<g opacity="0.3">
<path opacity="0.3" d="M544.124 326.327C542.866 326.326 541.661 325.826 540.771 324.937C539.882 324.048 539.382 322.842 539.381 321.585V315H518.189C516.548 315 514.973 315.652 513.813 316.813C512.652 317.974 512 319.548 512 321.189V358.499C512 360.141 512.652 361.715 513.813 362.876C514.973 364.036 516.548 364.688 518.189 364.688H543.627C544.44 364.689 545.245 364.529 545.996 364.218C546.747 363.907 547.43 363.451 548.005 362.877C548.58 362.302 549.036 361.619 549.347 360.868C549.658 360.117 549.818 359.312 549.818 358.499V326.327H544.124Z" fill="#FF3E4C"/>
</g>
<path d="M549.818 326.327H544.123C542.866 326.326 541.66 325.826 540.771 324.937C539.882 324.048 539.382 322.842 539.381 321.585V315L549.818 326.327Z" fill="#FF3E4C"/>
<path d="M554.305 354.24H525.546C523.506 354.24 521.853 355.893 521.853 357.933V366.508C521.853 368.548 523.506 370.201 525.546 370.201H554.305C556.345 370.201 557.999 368.548 557.999 366.508V357.933C557.999 355.893 556.345 354.24 554.305 354.24Z" fill="#FF3E4C"/>
<path d="M531.963 364.077V365.749H530.231V364.077H531.963Z" fill="white"/>
<path d="M534.507 363.322V365.749H532.835V358.833H535.544C536.366 358.833 536.992 359.037 537.421 359.445C537.639 359.658 537.809 359.916 537.921 360.2C538.032 360.484 538.082 360.789 538.067 361.094C538.075 361.496 537.975 361.892 537.78 362.244C537.579 362.587 537.28 362.863 536.922 363.037C536.491 363.242 536.018 363.34 535.542 363.325L534.507 363.322ZM536.365 361.094C536.365 360.48 536.03 360.174 535.358 360.174H534.507V361.974H535.358C536.03 361.981 536.365 361.687 536.365 361.094Z" fill="white"/>
<path d="M540.563 363.322V365.749H538.889V358.833H541.598C542.421 358.833 543.048 359.037 543.477 359.445C543.695 359.658 543.865 359.916 543.977 360.2C544.088 360.484 544.138 360.789 544.123 361.094C544.131 361.496 544.031 361.893 543.834 362.244C543.634 362.588 543.336 362.864 542.978 363.037C542.548 363.242 542.074 363.34 541.598 363.325L540.563 363.322ZM542.421 361.094C542.421 360.48 542.086 360.174 541.414 360.174H540.563V361.974H541.414C542.086 361.981 542.421 361.687 542.421 361.094Z" fill="white"/>
<path d="M549.915 358.833V360.164H548.036V365.749H546.355V360.164H544.494V358.833H549.915Z" fill="white"/>
<path d="M529.179 334.258H519.13C518.902 334.258 518.683 334.167 518.521 334.006C518.359 333.845 518.268 333.626 518.268 333.397C518.268 333.169 518.358 332.949 518.52 332.788C518.682 332.626 518.901 332.535 519.13 332.535H529.169C529.398 332.535 529.618 332.626 529.779 332.788C529.941 332.949 530.032 333.169 530.032 333.397C530.031 333.624 529.941 333.842 529.782 334.003C529.622 334.164 529.405 334.255 529.179 334.258Z" fill="#FF3E4C"/>
<path d="M529.179 339.403H519.13C518.902 339.403 518.683 339.312 518.521 339.151C518.359 338.99 518.268 338.771 518.268 338.542C518.268 338.314 518.358 338.094 518.52 337.933C518.682 337.771 518.901 337.68 519.13 337.68H529.169C529.398 337.68 529.618 337.771 529.779 337.933C529.941 338.094 530.032 338.314 530.032 338.542C530.031 338.769 529.941 338.987 529.782 339.148C529.622 339.309 529.405 339.4 529.179 339.403Z" fill="#FF3E4C"/>
<path d="M529.179 344.548H519.13C518.901 344.548 518.682 344.457 518.52 344.295C518.358 344.133 518.268 343.914 518.268 343.685C518.269 343.457 518.361 343.24 518.523 343.08C518.684 342.919 518.903 342.829 519.13 342.829H529.169C529.398 342.829 529.617 342.92 529.778 343.081C529.94 343.243 530.031 343.461 530.032 343.69C530.031 343.916 529.941 344.133 529.781 344.293C529.621 344.454 529.405 344.545 529.179 344.548Z" fill="#FF3E4C"/>
<path d="M529.179 349.693H519.13C518.901 349.693 518.682 349.602 518.52 349.44C518.358 349.278 518.268 349.059 518.268 348.83C518.268 348.602 518.359 348.383 518.521 348.222C518.683 348.061 518.902 347.97 519.13 347.97H529.169C529.398 347.97 529.617 348.061 529.778 348.222C529.94 348.383 530.031 348.602 530.032 348.83C530.032 349.057 529.942 349.275 529.783 349.437C529.623 349.598 529.406 349.69 529.179 349.693Z" fill="#FF3E4C"/>
<path d="M538.967 342.14V334.495C537.105 334.593 535.351 335.402 534.067 336.755C532.784 338.108 532.068 339.902 532.067 341.767C532.067 342.723 532.255 343.67 532.621 344.554C532.987 345.438 533.523 346.24 534.199 346.917C534.876 347.593 535.679 348.129 536.562 348.495C537.446 348.861 538.393 349.049 539.349 349.049C541.214 349.049 543.008 348.333 544.361 347.049C545.714 345.766 546.522 344.011 546.619 342.149L538.967 342.14Z" fill="#FF3E4C"/>
<path d="M540.361 333.913V340.812H547.261C547.169 339.012 546.413 337.31 545.138 336.036C543.863 334.761 542.161 334.005 540.361 333.913Z" fill="#FF3E4C"/>
</g>
<g filter="url(#filter4_d_310_321)">
<g opacity="0.3">
<path opacity="0.3" d="M406.124 405.327C404.867 405.326 403.661 404.826 402.772 403.937C401.883 403.048 401.383 401.842 401.382 400.585V394H380.189C378.548 394 376.974 394.652 375.813 395.813C374.652 396.973 374 398.548 374 400.189V437.498C374.002 439.138 374.656 440.71 375.816 441.868C376.977 443.027 378.549 443.678 380.189 443.678H405.627C406.44 443.678 407.245 443.518 407.997 443.208C408.748 442.897 409.43 442.441 410.005 441.866C410.58 441.291 411.036 440.609 411.348 439.858C411.659 439.107 411.819 438.302 411.819 437.489V405.318L406.124 405.327Z" fill="#00C650"/>
</g>
<path d="M411.819 405.327H406.124C404.867 405.326 403.661 404.826 402.772 403.937C401.883 403.048 401.383 401.842 401.382 400.585V394L411.819 405.327Z" fill="#00C650"/>
<path d="M416.306 433.239H387.546C385.506 433.239 383.853 434.892 383.853 436.932V445.506C383.853 447.546 385.506 449.2 387.546 449.2H416.306C418.346 449.2 419.999 447.546 419.999 445.506V436.932C419.999 434.892 418.346 433.239 416.306 433.239Z" fill="#00C650"/>
<path d="M392.513 443.016V444.683H390.79V443.016H392.513Z" fill="white"/>
<path d="M398.702 438.42C399.284 438.891 399.679 439.554 399.817 440.29H398.055C397.938 439.985 397.73 439.722 397.46 439.538C397.175 439.352 396.841 439.256 396.501 439.264C396.276 439.258 396.054 439.302 395.849 439.395C395.645 439.488 395.465 439.627 395.323 439.8C395.007 440.209 394.848 440.717 394.875 441.233C394.848 441.747 395.007 442.253 395.323 442.659C395.466 442.832 395.646 442.969 395.85 443.061C396.054 443.153 396.277 443.197 396.501 443.19C396.841 443.199 397.175 443.103 397.46 442.917C397.73 442.736 397.939 442.478 398.06 442.176H399.822C399.681 442.91 399.286 443.57 398.706 444.041C398.084 444.519 397.314 444.764 396.531 444.731C395.913 444.745 395.304 444.591 394.766 444.287C394.263 443.996 393.855 443.565 393.593 443.045C393.31 442.482 393.168 441.857 393.179 441.226C393.168 440.594 393.31 439.969 393.593 439.405C393.855 438.885 394.263 438.454 394.766 438.163C395.304 437.859 395.913 437.705 396.531 437.719C397.314 437.692 398.082 437.94 398.702 438.42Z" fill="white"/>
<path d="M405.425 443.747C405.227 444.063 404.943 444.317 404.606 444.478C404.196 444.67 403.747 444.763 403.295 444.75C402.614 444.777 401.943 444.579 401.386 444.186C401.14 444.001 400.939 443.764 400.797 443.49C400.655 443.217 400.577 442.916 400.567 442.608H402.34C402.353 442.84 402.452 443.059 402.619 443.22C402.783 443.374 403.003 443.457 403.228 443.45C403.413 443.46 403.595 443.397 403.734 443.275C403.795 443.215 403.842 443.144 403.874 443.065C403.906 442.985 403.921 442.901 403.918 442.815C403.92 442.735 403.906 442.655 403.877 442.58C403.848 442.505 403.804 442.436 403.748 442.378C403.627 442.256 403.483 442.158 403.325 442.091C403.155 442.015 402.922 441.925 402.623 441.822C402.258 441.702 401.902 441.557 401.556 441.389C401.272 441.243 401.028 441.029 400.845 440.766C400.635 440.448 400.531 440.071 400.549 439.69C400.539 439.312 400.648 438.941 400.859 438.627C401.077 438.321 401.375 438.082 401.722 437.937C402.122 437.775 402.552 437.697 402.984 437.707C403.638 437.673 404.283 437.865 404.811 438.252C405.036 438.435 405.22 438.663 405.352 438.921C405.483 439.179 405.559 439.462 405.574 439.752H403.773C403.751 439.55 403.664 439.36 403.525 439.211C403.453 439.143 403.368 439.091 403.275 439.056C403.182 439.022 403.083 439.007 402.984 439.011C402.813 439.003 402.644 439.058 402.511 439.168C402.448 439.226 402.4 439.298 402.369 439.378C402.338 439.457 402.325 439.543 402.331 439.628C402.329 439.704 402.343 439.78 402.37 439.851C402.398 439.922 402.439 439.987 402.492 440.042C402.606 440.162 402.744 440.257 402.897 440.32C403.058 440.391 403.293 440.483 403.587 440.594C403.959 440.713 404.321 440.861 404.67 441.035C404.957 441.189 405.203 441.408 405.39 441.675C405.604 441.997 405.709 442.379 405.692 442.765C405.693 443.11 405.601 443.45 405.425 443.747Z" fill="white"/>
<path d="M407.911 437.797L409.597 442.979L411.283 437.797H413.066L410.669 444.683H408.516L406.129 437.797H407.911Z" fill="white"/>
<path d="M401.345 428.683H384.474C383.014 428.683 381.827 427.229 381.827 425.44V413.207C381.827 411.42 383.014 409.966 384.474 409.966H401.345C402.806 409.966 403.992 411.42 403.992 413.207V425.44C403.992 427.229 402.806 428.683 401.345 428.683ZM384.474 411.622C383.761 411.622 383.18 412.333 383.18 413.207V425.44C383.18 426.314 383.761 427.024 384.474 427.024H401.345C402.058 427.024 402.638 426.314 402.638 425.44V413.207C402.638 412.333 402.058 411.622 401.345 411.622H384.474Z" fill="#00C650"/>
<path d="M403.316 421.316H382.503V422.974H403.316V421.316Z" fill="#00C650"/>
<path d="M403.316 415.631H382.503V417.289H403.316V415.631Z" fill="#00C650"/>
<path d="M397.986 410.794H396.328V427.852H397.986V410.794Z" fill="#00C650"/>
<path d="M389.49 410.794H387.832V427.852H389.49V410.794Z" fill="#00C650"/>
<g opacity="0.3">
<path opacity="0.3" d="M475.123 405.327C473.865 405.325 472.66 404.825 471.771 403.935C470.882 403.046 470.382 401.84 470.381 400.582V394H449.188C447.547 394 445.973 394.652 444.812 395.813C443.651 396.973 442.999 398.548 442.999 400.189V437.498C443.001 439.138 443.655 440.71 444.815 441.868C445.976 443.027 447.548 443.678 449.188 443.678H474.629C476.269 443.678 477.841 443.027 479.002 441.868C480.162 440.71 480.816 439.138 480.818 437.498V405.327H475.123Z" fill="#FF3E4C"/>
</g>
<path d="M480.818 405.327H475.123C473.866 405.325 472.66 404.825 471.771 403.935C470.882 403.046 470.382 401.84 470.381 400.582V394L480.818 405.327Z" fill="#FF3E4C"/>
<path d="M485.306 433.239H456.546C454.506 433.239 452.853 434.892 452.853 436.932V445.506C452.853 447.546 454.506 449.2 456.546 449.2H485.306C487.346 449.2 488.999 447.546 488.999 445.506V436.932C488.999 434.892 487.346 433.239 485.306 433.239Z" fill="#FF3E4C"/>
<path d="M464.24 443.075V444.747H462.508V443.075H464.24Z" fill="white"/>
<path d="M466.841 443.397H469.893V444.747H464.982V443.476L467.986 439.172H465.022V437.832H469.875V439.103L466.841 443.397Z" fill="white"/>
<path d="M472.593 437.832V444.747H470.928V437.832H472.593Z" fill="white"/>
<path d="M475.42 442.321V444.747H473.748V437.832H476.448C477.269 437.832 477.897 438.034 478.327 438.443C478.545 438.657 478.715 438.914 478.827 439.198C478.938 439.481 478.988 439.786 478.974 440.09C478.981 440.492 478.881 440.889 478.684 441.24C478.483 441.583 478.185 441.859 477.828 442.033C477.397 442.236 476.924 442.335 476.448 442.321H475.42ZM477.279 440.09C477.279 439.484 476.943 439.178 476.271 439.17H475.42V440.969H476.271C476.943 440.976 477.279 440.683 477.279 440.09Z" fill="white"/>
<path d="M461.905 429.078C461.131 429.077 460.39 428.769 459.843 428.222C459.296 427.675 458.989 426.933 458.988 426.16V423.241H464.823V426.16C464.823 426.933 464.515 427.675 463.968 428.223C463.421 428.77 462.679 429.078 461.905 429.078ZM460.481 424.734V426.16C460.481 426.537 460.631 426.9 460.898 427.167C461.165 427.434 461.527 427.585 461.905 427.585C462.283 427.585 462.645 427.434 462.912 427.167C463.18 426.9 463.33 426.538 463.331 426.16V424.734H460.481Z" fill="#FF3E4C"/>
<path d="M458.987 423.243H461.912V420.318H458.987V423.243Z" fill="#FF3E4C"/>
<path d="M461.904 420.32H464.83V417.395H461.904V420.32Z" fill="#FF3E4C"/>
<path d="M458.987 417.397H461.912V414.472H458.987V417.397Z" fill="#FF3E4C"/>
<path d="M461.904 414.474H464.83V411.548H461.904V414.474Z" fill="#FF3E4C"/>
<g opacity="0.3">
<path opacity="0.3" d="M544.122 405.325C542.864 405.324 541.659 404.824 540.77 403.935C539.88 403.046 539.38 401.84 539.379 400.583V394H518.19C516.548 394 514.973 394.652 513.812 395.813C512.651 396.975 511.999 398.549 511.999 400.192V437.5C511.999 439.142 512.651 440.717 513.812 441.878C514.973 443.039 516.548 443.691 518.19 443.691H543.627C544.44 443.691 545.245 443.531 545.996 443.22C546.747 442.909 547.429 442.453 548.004 441.878C548.579 441.303 549.035 440.62 549.346 439.869C549.657 439.118 549.816 438.313 549.816 437.5V405.327L544.122 405.325Z" fill="#FF9908"/>
</g>
<path d="M549.816 405.325H544.121C542.864 405.324 541.658 404.824 540.769 403.935C539.88 403.046 539.38 401.84 539.379 400.583V394L549.816 405.325Z" fill="#FF9908"/>
<path d="M554.305 433.238H525.547C523.507 433.238 521.854 434.892 521.854 436.932V445.506C521.854 447.546 523.507 449.2 525.547 449.2H554.305C556.345 449.2 557.999 447.546 557.999 445.506V436.932C557.999 434.892 556.345 433.238 554.305 433.238Z" fill="#FF9908"/>
<path d="M530.398 443.075V444.749H528.666V443.075H530.398Z" fill="white"/>
<path d="M535.959 443.809C535.761 444.127 535.476 444.382 535.138 444.542C534.726 444.736 534.275 444.83 533.82 444.816C533.137 444.844 532.463 444.645 531.904 444.25C531.657 444.065 531.454 443.827 531.312 443.552C531.17 443.278 531.092 442.975 531.083 442.666H532.863C532.876 442.899 532.975 443.118 533.142 443.282C533.307 443.436 533.527 443.519 533.753 443.512C533.939 443.523 534.122 443.46 534.262 443.337C534.323 443.278 534.371 443.206 534.403 443.127C534.435 443.048 534.451 442.963 534.448 442.877C534.45 442.796 534.436 442.715 534.407 442.639C534.377 442.563 534.332 442.494 534.275 442.436C534.154 442.312 534.01 442.215 533.85 442.148C533.68 442.073 533.445 441.983 533.146 441.879C532.78 441.758 532.422 441.613 532.074 441.444C531.789 441.296 531.544 441.081 531.361 440.816C531.149 440.497 531.045 440.118 531.063 439.735C531.053 439.356 531.162 438.984 531.375 438.671C531.593 438.363 531.894 438.124 532.242 437.981C532.644 437.818 533.074 437.74 533.507 437.751C534.166 437.714 534.816 437.907 535.347 438.298C535.569 438.478 535.751 438.701 535.883 438.955C536.015 439.208 536.094 439.485 536.115 439.77H534.305C534.285 439.566 534.196 439.375 534.055 439.227C533.983 439.159 533.897 439.106 533.804 439.071C533.711 439.037 533.611 439.022 533.512 439.027C533.34 439.018 533.171 439.074 533.038 439.183C532.976 439.242 532.927 439.313 532.896 439.393C532.864 439.473 532.851 439.558 532.856 439.643C532.855 439.72 532.869 439.796 532.897 439.867C532.925 439.938 532.966 440.003 533.02 440.057C533.134 440.177 533.272 440.273 533.425 440.338C533.588 440.409 533.822 440.501 534.128 440.612C534.501 440.731 534.864 440.88 535.214 441.056C535.502 441.21 535.75 441.43 535.938 441.697C536.152 442.021 536.259 442.404 536.242 442.792C536.245 443.151 536.147 443.503 535.959 443.809Z" fill="white"/>
<path d="M538.46 437.833L540.15 443.036L541.843 437.833H543.634L541.226 444.749H539.064L536.668 437.833H538.46Z" fill="white"/>
<path d="M549.658 438.39C550.215 438.808 550.591 439.425 550.706 440.113H548.935C548.82 439.866 548.632 439.66 548.397 439.522C548.134 439.365 547.832 439.285 547.526 439.292C547.287 439.282 547.05 439.325 546.83 439.417C546.611 439.509 546.414 439.648 546.254 439.825C545.917 440.228 545.746 440.743 545.775 441.267C545.775 441.925 545.943 442.43 546.279 442.783C546.468 442.966 546.693 443.108 546.94 443.199C547.186 443.29 547.449 443.328 547.712 443.312C548.087 443.319 548.454 443.203 548.758 442.983C549.069 442.751 549.293 442.423 549.395 442.049H547.282V440.846H550.794V442.5C550.659 442.911 550.446 443.293 550.168 443.625C549.866 443.981 549.49 444.268 549.067 444.467C548.588 444.688 548.065 444.798 547.537 444.788C546.895 444.805 546.261 444.652 545.697 444.345C545.182 444.055 544.762 443.621 544.49 443.096C544.197 442.527 544.051 441.895 544.064 441.256C544.053 440.62 544.199 439.992 544.49 439.427C544.762 438.903 545.179 438.47 545.693 438.178C546.248 437.873 546.874 437.719 547.507 437.734C548.277 437.707 549.034 437.937 549.658 438.39Z" fill="white"/>
<path d="M540.294 423.378H539.722C539.719 421.057 538.795 418.832 537.154 417.191C535.512 415.549 533.287 414.627 530.966 414.624C528.645 414.627 526.42 415.55 524.779 417.191C523.138 418.832 522.215 421.057 522.213 423.378H521.638C521.641 420.905 522.625 418.534 524.373 416.786C526.122 415.037 528.493 414.054 530.966 414.051C533.439 414.054 535.81 415.037 537.559 416.786C539.307 418.534 540.291 420.905 540.294 423.378Z" fill="#FF9908"/>
<path d="M544.22 414.051H517.712V414.624H544.22V414.051Z" fill="#FF9908"/>
<path d="M522.841 422.462H521.008V424.295H522.841V422.462Z" fill="#FF9908"/>
<path d="M540.923 422.462H539.09V424.295H540.923V422.462Z" fill="#FF9908"/>
<path d="M531.881 413.391H530.048V415.224H531.881V413.391Z" fill="#FF9908"/>
<path d="M517.681 415.227C518.188 415.227 518.599 414.816 518.599 414.309C518.599 413.802 518.188 413.391 517.681 413.391C517.175 413.391 516.764 413.802 516.764 414.309C516.764 414.816 517.175 415.227 517.681 415.227Z" fill="#FF9908"/>
<path d="M544.132 415.227C544.639 415.227 545.05 414.816 545.05 414.309C545.05 413.802 544.639 413.391 544.132 413.391C543.626 413.391 543.215 413.802 543.215 414.309C543.215 414.816 543.626 415.227 544.132 415.227Z" fill="#FF9908"/>
</g>
<g filter="url(#filter5_d_310_321)">
<rect x="4" y="317" width="77" height="74" rx="5" fill="url(#paint2_linear_310_321)"/>
<path d="M56.4763 346.882H39.4456V354.972L19.0088 344.328L39.4456 329V338.793H52.9798C55.2914 338.793 57.6767 339.086 59.554 340.435C64.0779 343.684 65.1103 348.955 64.9917 351.566C61.9261 347.478 58.0375 346.74 56.4763 346.882Z" fill="white"/>
<path d="M27.5247 360.933L44.5554 360.933L44.5554 352.843L64.9922 363.487L44.5554 378.815L44.5554 369.022L31.0211 369.022C28.7096 369.022 26.3243 368.729 24.4469 367.38C19.9231 364.131 18.8906 358.86 19.0093 356.249C22.0748 360.336 25.9635 361.074 27.5247 360.933Z" fill="white"/>
</g>
<circle cx="291" cy="334" r="11" fill="#6333DE"/>
<path d="M296.354 330.354C296.549 330.158 296.549 329.842 296.354 329.646L293.172 326.464C292.976 326.269 292.66 326.269 292.464 326.464C292.269 326.66 292.269 326.976 292.464 327.172L295.293 330L292.464 332.828C292.269 333.024 292.269 333.34 292.464 333.536C292.66 333.731 292.976 333.731 293.172 333.536L296.354 330.354ZM286 330.5H296V329.5H286V330.5Z" fill="white"/>
<path d="M285.646 336.646C285.451 336.842 285.451 337.158 285.646 337.354L288.828 340.536C289.024 340.731 289.34 340.731 289.536 340.536C289.731 340.34 289.731 340.024 289.536 339.828L286.707 337L289.536 334.172C289.731 333.976 289.731 333.66 289.536 333.464C289.34 333.269 289.024 333.269 288.828 333.464L285.646 336.646ZM296 336.5L286 336.5L286 337.5L296 337.5L296 336.5Z" fill="white"/>
<defs>
<filter id="filter0_d_310_321" x="163" y="239" width="100.659" height="119.196" filterUnits="userSpaceOnUse" color-interpolation-filters="sRGB">
<feFlood flood-opacity="0" result="BackgroundImageFix"/>
<feColorMatrix in="SourceAlpha" type="matrix" values="0 0 0 0 0 0 0 0 0 0 0 0 0 0 0 0 0 0 127 0" result="hardAlpha"/>
<feOffset dy="4"/>
<feGaussianBlur stdDeviation="2"/>
<feComposite in2="hardAlpha" operator="out"/>
<feColorMatrix type="matrix" values="0 0 0 0 0 0 0 0 0 0 0 0 0 0 0 0 0 0 0.25 0"/>
<feBlend mode="normal" in2="BackgroundImageFix" result="effect1_dropShadow_310_321"/>
<feBlend mode="normal" in="SourceGraphic" in2="effect1_dropShadow_310_321" result="shape"/>
</filter>
<filter id="filter1_d_310_321" x="438.999" y="315" width="54.0005" height="63.2014" filterUnits="userSpaceOnUse" color-interpolation-filters="sRGB">
<feFlood flood-opacity="0" result="BackgroundImageFix"/>
<feColorMatrix in="SourceAlpha" type="matrix" values="0 0 0 0 0 0 0 0 0 0 0 0 0 0 0 0 0 0 127 0" result="hardAlpha"/>
<feOffset dy="4"/>
<feGaussianBlur stdDeviation="2"/>
<feComposite in2="hardAlpha" operator="out"/>
<feColorMatrix type="matrix" values="0 0 0 0 0 0 0 0 0 0 0 0 0 0 0 0 0 0 0.25 0"/>
<feBlend mode="normal" in2="BackgroundImageFix" result="effect1_dropShadow_310_321"/>
<feBlend mode="normal" in="SourceGraphic" in2="effect1_dropShadow_310_321" result="shape"/>
</filter>
<filter id="filter2_d_310_321" x="370" y="315" width="53.9985" height="63.2013" filterUnits="userSpaceOnUse" color-interpolation-filters="sRGB">
<feFlood flood-opacity="0" result="BackgroundImageFix"/>
<feColorMatrix in="SourceAlpha" type="matrix" values="0 0 0 0 0 0 0 0 0 0 0 0 0 0 0 0 0 0 127 0" result="hardAlpha"/>
<feOffset dy="4"/>
<feGaussianBlur stdDeviation="2"/>
<feComposite in2="hardAlpha" operator="out"/>
<feColorMatrix type="matrix" values="0 0 0 0 0 0 0 0 0 0 0 0 0 0 0 0 0 0 0.25 0"/>
<feBlend mode="normal" in2="BackgroundImageFix" result="effect1_dropShadow_310_321"/>
<feBlend mode="normal" in="SourceGraphic" in2="effect1_dropShadow_310_321" result="shape"/>
</filter>
<filter id="filter3_d_310_321" x="508" y="315" width="53.9985" height="63.2014" filterUnits="userSpaceOnUse" color-interpolation-filters="sRGB">
<feFlood flood-opacity="0" result="BackgroundImageFix"/>
<feColorMatrix in="SourceAlpha" type="matrix" values="0 0 0 0 0 0 0 0 0 0 0 0 0 0 0 0 0 0 127 0" result="hardAlpha"/>
<feOffset dy="4"/>
<feGaussianBlur stdDeviation="2"/>
<feComposite in2="hardAlpha" operator="out"/>
<feColorMatrix type="matrix" values="0 0 0 0 0 0 0 0 0 0 0 0 0 0 0 0 0 0 0.25 0"/>
<feBlend mode="normal" in2="BackgroundImageFix" result="effect1_dropShadow_310_321"/>
<feBlend mode="normal" in="SourceGraphic" in2="effect1_dropShadow_310_321" result="shape"/>
</filter>
<filter id="filter4_d_310_321" x="370" y="394" width="191.999" height="63.2001" filterUnits="userSpaceOnUse" color-interpolation-filters="sRGB">
<feFlood flood-opacity="0" result="BackgroundImageFix"/>
<feColorMatrix in="SourceAlpha" type="matrix" values="0 0 0 0 0 0 0 0 0 0 0 0 0 0 0 0 0 0 127 0" result="hardAlpha"/>
<feOffset dy="4"/>
<feGaussianBlur stdDeviation="2"/>
<feComposite in2="hardAlpha" operator="out"/>
<feColorMatrix type="matrix" values="0 0 0 0 0 0 0 0 0 0 0 0 0 0 0 0 0 0 0.25 0"/>
<feBlend mode="normal" in2="BackgroundImageFix" result="effect1_dropShadow_310_321"/>
<feBlend mode="normal" in="SourceGraphic" in2="effect1_dropShadow_310_321" result="shape"/>
</filter>
<filter id="filter5_d_310_321" x="0" y="317" width="85" height="82" filterUnits="userSpaceOnUse" color-interpolation-filters="sRGB">
<feFlood flood-opacity="0" result="BackgroundImageFix"/>
<feColorMatrix in="SourceAlpha" type="matrix" values="0 0 0 0 0 0 0 0 0 0 0 0 0 0 0 0 0 0 127 0" result="hardAlpha"/>
<feOffset dy="4"/>
<feGaussianBlur stdDeviation="2"/>
<feComposite in2="hardAlpha" operator="out"/>
<feColorMatrix type="matrix" values="0 0 0 0 0 0 0 0 0 0 0 0 0 0 0 0 0 0 0.25 0"/>
<feBlend mode="normal" in2="BackgroundImageFix" result="effect1_dropShadow_310_321"/>
<feBlend mode="normal" in="SourceGraphic" in2="effect1_dropShadow_310_321" result="shape"/>
</filter>
<linearGradient id="paint0_linear_310_321" x1="12.0186" y1="1.00001" x2="380.5" y2="262.5" gradientUnits="userSpaceOnUse">
<stop stop-color="#37F4F4"/>
<stop offset="1" stop-color="#FBD200"/>
</linearGradient>
<linearGradient id="paint1_linear_310_321" x1="469.5" y1="366" x2="580" y2="468.209" gradientUnits="userSpaceOnUse">
<stop stop-opacity="0"/>
<stop offset="1" stop-color="#FBD200"/>
</linearGradient>
<linearGradient id="paint2_linear_310_321" x1="-70.6667" y1="354" x2="401.056" y2="354" gradientUnits="userSpaceOnUse">
<stop stop-color="#37F4F4"/>
<stop offset="1" stop-color="#6333DE"/>
</linearGradient>
</defs>
</svg>
