<svg width="113" height="34" viewBox="0 0 113 34" fill="none" xmlns="http://www.w3.org/2000/svg">
<path d="M27.4409 26.2376C25.8926 26.2376 24.5072 25.8302 23.244 25.0561C21.9809 24.2819 20.9622 23.2226 20.2288 21.8781C19.4954 20.5336 19.0879 19.0668 19.0879 17.4371C19.0879 16.2148 19.2916 15.0739 19.7398 14.0146C20.1881 12.9553 20.7585 12.0182 21.5327 11.2033C22.3069 10.3884 23.1625 9.7773 24.1812 9.32912C25.1999 8.88094 26.2593 8.63647 27.4002 8.63647C28.7041 8.63647 29.8857 8.92168 30.9859 9.45134C32.0861 10.0218 32.9825 10.7551 33.7567 11.6922C34.5308 12.6293 35.0606 13.7294 35.4273 14.9517C35.7533 16.174 35.8347 17.4371 35.6718 18.7816H23.4885C23.6515 19.3927 23.896 19.9631 24.2627 20.4521C24.6294 20.941 25.0776 21.3484 25.6073 21.6336C26.1371 21.9188 26.789 22.0818 27.4409 22.0818C28.1336 22.0818 28.7856 21.9188 29.3968 21.5929C29.9672 21.2262 30.4562 20.778 30.8637 20.1669L35.0198 21.1447C34.3271 22.6115 33.3085 23.8338 31.9638 24.7709C30.6192 25.7487 29.1116 26.2376 27.4409 26.2376ZM23.3663 15.7666H31.5564C31.4341 15.1147 31.1896 14.5035 30.7822 13.9739C30.3747 13.4442 29.8857 12.996 29.3153 12.6701C28.7448 12.3441 28.1336 12.1812 27.4409 12.1812C26.789 12.1812 26.1371 12.3441 25.6073 12.6701C25.0369 12.996 24.5479 13.4035 24.1812 13.9739C23.7737 14.5035 23.4885 15.1147 23.3663 15.7666Z" fill="white"/>
<path d="M42.2321 26.1969C41.3764 26.1561 40.5208 25.9524 39.7058 25.6672C38.8909 25.382 38.1982 24.9746 37.5462 24.4449C36.935 23.9153 36.4461 23.3041 36.1201 22.6115L39.5428 21.1447C39.6651 21.3484 39.9096 21.5929 40.1948 21.8373C40.48 22.0818 40.8467 22.2855 41.2542 22.4485C41.6617 22.6115 42.1506 22.693 42.6396 22.693C43.047 22.693 43.4545 22.6522 43.862 22.53C44.2287 22.4078 44.5547 22.2448 44.7991 22.0003C45.0436 21.7559 45.1659 21.4299 45.1659 21.0632C45.1659 20.6558 45.0436 20.3298 44.7584 20.0854C44.4732 19.8409 44.1064 19.6779 43.699 19.5557C43.2508 19.4335 42.8433 19.3112 42.4358 19.2298C41.3764 19.026 40.3985 18.7001 39.5021 18.2519C38.6057 17.8037 37.8722 17.2333 37.3018 16.5407C36.7313 15.8481 36.4868 14.9924 36.4868 13.9739C36.4868 12.8738 36.7721 11.9367 37.3833 11.1218C37.9537 10.307 38.7279 9.69581 39.6651 9.28837C40.6022 8.84019 41.6209 8.63647 42.7211 8.63647C44.025 8.63647 45.2474 8.92168 46.3475 9.45134C47.4477 10.0218 48.3441 10.7959 48.996 11.7737L45.7771 13.6887C45.6141 13.4035 45.4103 13.159 45.1251 12.9553C44.8399 12.7108 44.5139 12.5478 44.1879 12.3849C43.8212 12.2219 43.4545 12.1404 43.0878 12.1404C42.5988 12.0997 42.1506 12.1812 41.7024 12.2626C41.2949 12.3849 40.969 12.5478 40.7245 12.833C40.48 13.1183 40.3578 13.4442 40.3578 13.8924C40.3578 14.2998 40.5207 14.6258 40.8467 14.8295C41.1727 15.0332 41.5802 15.1962 42.0691 15.3184C42.5581 15.4406 43.0063 15.5629 43.4138 15.6851C44.3917 16.011 45.3288 16.4185 46.1845 16.8666C47.0402 17.3148 47.7329 17.926 48.2626 18.5779C48.7923 19.2705 49.0368 20.0854 48.996 21.0225C48.996 22.0818 48.6701 23.0596 48.0181 23.8338C47.3662 24.6486 46.5512 25.2598 45.5326 25.6672C44.4732 26.1154 43.4138 26.2784 42.2321 26.1969Z" fill="white"/>
<path d="M52.3371 8.47343C51.7259 8.47343 51.2369 8.26971 50.8295 7.86228C50.422 7.45484 50.2183 6.96592 50.2183 6.35477C50.2183 5.78436 50.422 5.2547 50.8295 4.88801C51.2369 4.48057 51.7259 4.27686 52.3371 4.27686C52.9075 4.27686 53.4372 4.48057 53.8447 4.88801C54.2522 5.29544 54.4559 5.78436 54.4559 6.35477C54.4559 6.96592 54.2522 7.45484 53.8447 7.86228C53.4372 8.26971 52.9483 8.47343 52.3371 8.47343ZM50.259 9.45127H54.3337V26.1561H50.259V9.45127Z" fill="white"/>
<path d="M94.3874 21.6335C94.9986 21.6335 95.4875 21.8373 95.895 22.2447C96.3025 22.6521 96.5062 23.141 96.5062 23.7522C96.5062 24.3226 96.3025 24.8523 95.895 25.219C95.4875 25.6264 94.9986 25.8301 94.3874 25.8301C93.8169 25.8301 93.2872 25.6264 92.8798 25.219C92.4723 24.8115 92.2686 24.3226 92.2686 23.7522C92.2686 23.141 92.4723 22.6521 92.8798 22.2447C93.2872 21.7965 93.8169 21.6335 94.3874 21.6335Z" fill="white"/>
<path d="M96.4658 8.63647H92.3911V20.615H96.4658V8.63647Z" fill="white"/>
<path d="M91.0873 15.2369V25.7894H87.0127V16.2962C87.0127 15.6443 86.8497 15.0332 86.5237 14.5035C86.1977 13.9738 85.7903 13.5257 85.2198 13.1997C84.6901 12.8738 84.0789 12.7108 83.427 12.7108C82.775 12.7108 82.1638 12.8738 81.6341 13.1997C81.1044 13.5257 80.6562 13.9331 80.3302 14.5035C80.0042 15.0332 79.8413 15.6443 79.8413 16.2962V25.7894H75.7666V9.08462H79.8413V10.5514C80.4117 9.94024 81.1044 9.49206 81.8786 9.12537C82.6528 8.75868 83.5084 8.5957 84.4456 8.5957C85.668 8.5957 86.7682 8.88091 87.7461 9.49206C88.7648 10.1032 89.5389 10.8773 90.1501 11.8959C90.7613 12.9145 91.0873 14.0146 91.0873 15.2369Z" fill="white"/>
<path d="M113.009 15.2369V25.7894H108.934V16.2962C108.934 15.6443 108.771 15.0332 108.445 14.5035C108.119 13.9738 107.712 13.5257 107.141 13.1997C106.611 12.8738 106 12.7108 105.348 12.7108C104.696 12.7108 104.085 12.8738 103.555 13.1997C103.026 13.5257 102.578 13.9331 102.252 14.5035C101.926 15.0332 101.763 15.6443 101.763 16.2962V25.7894H97.688V9.08462H101.763V10.5514C102.333 9.94024 103.026 9.49206 103.8 9.12537C104.574 8.75868 105.43 8.5957 106.367 8.5957C107.589 8.5957 108.69 8.88091 109.667 9.49206C110.686 10.1032 111.46 10.8773 112.072 11.8959C112.723 12.9145 113.009 14.0146 113.009 15.2369Z" fill="white"/>
<path d="M58.978 27.0932L56.1665 30.0675C56.1665 30.0675 64.2343 37.3198 73.3616 30.2305L70.5093 27.0525C70.4686 27.0525 65.3345 32.3491 58.978 27.0932Z" fill="url(#paint0_linear_1219_184)"/>
<path d="M74.5034 9.16614H67.2505H67.2097C66.3133 8.84019 65.2946 8.63647 64.276 8.63647C59.5086 8.63647 55.6377 12.5071 55.6377 17.2741C55.6377 22.0411 59.5086 25.9117 64.276 25.9117C69.0433 25.9117 72.9143 22.0411 72.9143 17.2741C72.9143 15.7666 72.5475 14.3406 71.8548 13.1182H74.5034V9.16614ZM64.276 22.0818C61.6274 22.0818 59.4679 19.9224 59.4679 17.2741C59.4679 14.6258 61.6274 12.4664 64.276 12.4664C66.9245 12.4664 69.0841 14.6258 69.0841 17.2741C69.0841 19.9224 66.9245 22.0818 64.276 22.0818Z" fill="white"/>
<path d="M13.7502 0.732178V11.1625C13.2205 10.3884 12.5278 9.81796 11.7129 9.32904C10.8979 8.88086 9.96077 8.6364 8.90136 8.6364C7.67896 8.6364 6.53806 8.88086 5.47865 9.32904C4.41924 9.77722 3.48206 10.4291 2.66713 11.2032C1.8522 12.0181 1.241 12.9552 0.792789 14.0145C0.344576 15.0739 0.100098 16.2147 0.100098 17.437C0.100098 18.6593 0.344576 19.8001 0.792789 20.8594C1.241 21.9187 1.89295 22.8559 2.66713 23.6707C3.48206 24.4856 4.41924 25.0967 5.47865 25.5857C6.53806 26.0338 7.67896 26.2783 8.90136 26.2783C9.96077 26.2783 10.8979 26.0338 11.7129 25.5857C12.5278 25.1375 13.1798 24.5263 13.7502 23.7522V25.8301H17.8249V0.813663H13.7502V0.732178ZM11.2647 21.6335C10.6127 22.0817 9.83854 22.2854 8.94211 22.2854C8.90136 22.2854 8.86061 22.2854 8.77912 22.2854C8.00494 22.2447 7.2715 22.041 6.61955 21.6335C5.92686 21.1854 5.35641 20.615 4.90819 19.8816C4.50073 19.1482 4.25625 18.3333 4.25625 17.437C4.25625 16.5406 4.45998 15.7258 4.86745 14.9924C5.27491 14.259 5.84537 13.6886 6.53806 13.2404C7.19 12.833 7.92345 12.6293 8.73838 12.5885C8.77912 12.5885 8.86062 12.5885 8.90136 12.5885C9.75704 12.5885 10.5312 12.7922 11.1832 13.2404C11.6314 13.5256 12.0388 13.8923 12.3648 14.3405C12.5278 14.5442 12.65 14.7479 12.7723 14.9924C13.139 15.7258 13.3427 16.5406 13.3427 17.437C13.3427 18.3333 13.139 19.1482 12.7723 19.8816C12.65 20.0853 12.5278 20.289 12.4056 20.4927C12.1203 20.9409 11.7129 21.3076 11.2647 21.6335Z" fill="white"/>
<path d="M8.90132 19.4742C10.049 19.4742 10.9794 18.5439 10.9794 17.3963C10.9794 16.2487 10.049 15.3184 8.90132 15.3184C7.75363 15.3184 6.82324 16.2487 6.82324 17.3963C6.82324 18.5439 7.75363 19.4742 8.90132 19.4742Z" fill="white"/>
<path d="M82.2861 33.2859C82.0416 33.2859 81.8379 33.2452 81.5934 33.1637C81.3897 33.0822 81.186 32.96 81.023 32.8377C80.86 32.7155 80.7377 32.5525 80.6562 32.3488L81.2674 32.0636C81.3082 32.1451 81.3897 32.2673 81.5119 32.3488C81.6342 32.4303 81.7564 32.5118 81.9194 32.5525C82.0824 32.5933 82.2046 32.634 82.3676 32.634C82.5306 32.634 82.6936 32.5933 82.8158 32.5525C82.9381 32.5118 83.0603 32.4303 83.1418 32.3488C83.2233 32.2673 83.264 32.1451 83.264 31.9821C83.264 31.8192 83.2233 31.7377 83.101 31.6562C83.0196 31.5747 82.8973 31.4932 82.7343 31.4525C82.5713 31.4117 82.4491 31.371 82.2861 31.3302C82.0009 31.2488 81.7157 31.1673 81.5119 31.045C81.2675 30.9228 81.1045 30.8006 80.9822 30.6376C80.86 30.4746 80.7785 30.2709 80.7785 30.0264C80.7785 29.7412 80.86 29.5375 80.9822 29.3338C81.1452 29.1301 81.3082 29.0079 81.5527 28.8856C81.7971 28.7634 82.0416 28.7227 82.3269 28.7227C82.6936 28.7227 82.9788 28.8041 83.264 28.9264C83.5493 29.0893 83.753 29.2931 83.916 29.5375L83.3455 29.8635C83.3048 29.7412 83.2233 29.6598 83.1418 29.5783C83.0603 29.4968 82.9381 29.456 82.8158 29.3746C82.6936 29.3338 82.5713 29.2931 82.4083 29.2931C82.2454 29.2931 82.0824 29.2931 81.9601 29.3746C81.7971 29.4153 81.7157 29.4968 81.5934 29.5783C81.5119 29.6598 81.4712 29.782 81.4712 29.945C81.4712 30.1079 81.5119 30.1894 81.5934 30.2709C81.6749 30.3524 81.7971 30.3931 81.9601 30.4339C82.1231 30.4746 82.2861 30.5154 82.4491 30.5969C82.6936 30.6783 82.9381 30.7598 83.1825 30.8821C83.427 31.0043 83.59 31.1265 83.7122 31.2895C83.8345 31.4525 83.916 31.6562 83.916 31.9006C83.916 32.1451 83.8345 32.3896 83.6715 32.5933C83.5085 32.797 83.3048 32.96 83.0603 33.0415C82.8566 33.2452 82.5713 33.2859 82.2861 33.2859Z" fill="white"/>
<path d="M88.8872 29.6189H87.9093V33.2043H87.1758V29.6189H86.4424V28.8855H87.1758V27.541H87.9093V28.8855H88.8872V29.6189Z" fill="white"/>
<path d="M91.4946 31.5748V28.8857H92.2281V31.4118C92.2281 31.6155 92.2688 31.8193 92.391 32.023C92.5133 32.186 92.6355 32.3489 92.8393 32.4304C93.0022 32.5526 93.206 32.5934 93.4505 32.5934C93.6542 32.5934 93.8579 32.5526 94.0617 32.4304C94.2246 32.3082 94.3876 32.186 94.4691 32.023C94.5914 31.86 94.6321 31.6563 94.6321 31.4118V28.8857H95.3656V33.2045H94.6321V32.6749C94.4691 32.8786 94.3061 33.0416 94.0617 33.1638C93.8172 33.286 93.5727 33.3268 93.3282 33.3268C93.0023 33.3268 92.717 33.2453 92.4318 33.0823C92.1466 32.9193 91.9428 32.7156 91.7798 32.4712C91.5761 32.186 91.4946 31.9008 91.4946 31.5748Z" fill="white"/>
<path d="M101.559 26.7671H102.292V33.2453H101.559V32.5119C101.396 32.7564 101.233 32.9601 100.989 33.1231C100.744 33.286 100.459 33.3675 100.133 33.3675C99.8069 33.3675 99.5217 33.3268 99.2365 33.2045C98.9512 33.0823 98.7068 32.9193 98.503 32.7156C98.2993 32.5119 98.1363 32.2675 98.0141 31.9822C97.8918 31.697 97.8511 31.4118 97.8511 31.0859C97.8511 30.7599 97.8918 30.4747 98.0141 30.1895C98.1363 29.9043 98.2993 29.6599 98.503 29.4562C98.7068 29.2524 98.9512 29.0895 99.2365 28.9672C99.5217 28.845 99.8069 28.8043 100.133 28.8043C100.459 28.8043 100.744 28.8857 100.989 29.0487C101.233 29.2117 101.437 29.4154 101.559 29.6599V26.7671ZM100.092 32.6341C100.377 32.6341 100.622 32.5527 100.826 32.4304C101.029 32.3082 101.192 32.1045 101.315 31.86C101.437 31.6156 101.478 31.3711 101.478 31.0859C101.478 30.8007 101.437 30.5155 101.315 30.3118C101.192 30.0673 101.029 29.9043 100.826 29.7414C100.622 29.6191 100.377 29.5376 100.092 29.5376C99.8069 29.5376 99.5624 29.6191 99.318 29.7414C99.0735 29.8636 98.9105 30.0673 98.7475 30.3118C98.6253 30.5562 98.5438 30.8007 98.5438 31.0859C98.5438 31.3711 98.6253 31.6563 98.7475 31.86C98.8697 32.1045 99.0735 32.2675 99.318 32.4304C99.5624 32.5527 99.8477 32.6341 100.092 32.6341Z" fill="white"/>
<path d="M105.675 28.193C105.552 28.193 105.471 28.1523 105.389 28.0708C105.308 27.9893 105.267 27.9078 105.267 27.7856C105.267 27.6634 105.308 27.5819 105.389 27.5004C105.471 27.4189 105.552 27.3782 105.675 27.3782C105.797 27.3782 105.878 27.4189 105.96 27.5004C106.041 27.5819 106.082 27.6634 106.082 27.7856C106.082 27.9078 106.041 27.9893 105.96 28.0708C105.878 28.1523 105.756 28.193 105.675 28.193ZM105.308 28.9264H106.041V33.2452H105.308V28.9264Z" fill="white"/>
<path d="M110.85 33.3267C110.442 33.3267 110.075 33.2452 109.749 33.0007C109.423 32.797 109.179 32.5118 108.975 32.1859C108.771 31.8599 108.69 31.4525 108.69 31.0451C108.69 30.7191 108.731 30.4339 108.853 30.1487C108.975 29.8635 109.138 29.619 109.301 29.4153C109.505 29.2116 109.709 29.0486 109.994 28.9264C110.238 28.8042 110.524 28.7634 110.809 28.7634C111.216 28.7634 111.583 28.8857 111.909 29.0894C112.235 29.2931 112.479 29.5783 112.683 29.9042C112.887 30.2302 112.968 30.6376 112.968 31.0451C112.968 31.371 112.928 31.6562 112.805 31.9414C112.683 32.2266 112.52 32.4711 112.357 32.6748C112.153 32.8785 111.95 33.0415 111.664 33.1637C111.461 33.2859 111.175 33.3267 110.85 33.3267ZM110.85 32.5933C111.135 32.5933 111.379 32.5118 111.583 32.3896C111.787 32.2674 111.99 32.0636 112.113 31.8192C112.235 31.5747 112.316 31.3303 112.316 31.0451C112.316 30.7599 112.235 30.5154 112.113 30.2709C111.99 30.0265 111.827 29.8635 111.583 29.7005C111.379 29.5783 111.135 29.4968 110.85 29.4968C110.564 29.4968 110.32 29.5783 110.116 29.7005C109.912 29.8228 109.749 30.0265 109.586 30.2709C109.464 30.5154 109.383 30.7599 109.383 31.0451C109.383 31.3303 109.464 31.5747 109.586 31.8192C109.709 32.0636 109.872 32.2266 110.116 32.3896C110.361 32.5526 110.605 32.5933 110.85 32.5933Z" fill="white"/>
<defs>
<linearGradient id="paint0_linear_1219_184" x1="56.1411" y1="30.1899" x2="73.3476" y2="30.1899" gradientUnits="userSpaceOnUse">
<stop stop-color="#AEFFAE"/>
<stop offset="1" stop-color="#1BFFF3"/>
</linearGradient>
</defs>
</svg>
