<svg width="112" height="32" viewBox="0 0 112 32" fill="none" xmlns="http://www.w3.org/2000/svg">
<g clip-path="url(#clip0_8_23)">
<path d="M47.4323 11.2515L44.3071 13.5532C44.3071 13.5532 42.0389 10.7217 40.1003 11.977C37.8942 13.4037 40.9478 14.5755 43.395 14.7953C45.8422 15.0152 50.166 18.6579 45.9998 22.8547C41.8336 27.0515 35.373 23.3581 33.9668 21.3664L37.1135 18.8778C37.1135 18.8778 39.0856 20.9641 40.8476 20.819C42.6095 20.6739 43.7126 19.7198 42.791 18.8052C41.8694 17.8907 36.1275 17.8731 35.2178 14.9448C34.3082 12.0166 36.1585 6.69421 43.395 8.27707C43.395 8.27707 46.2075 8.94758 47.4323 11.2515Z" fill="white"/>
<path d="M23.3879 15.1514H29.9774C29.9774 15.1514 29.7697 11.9241 26.4224 12.0209C23.0752 12.1176 22.2682 15.0788 22.2682 15.0788C22.0883 16.1753 22.1272 17.2928 22.3828 18.3765C22.5632 19.1467 22.9638 19.8586 23.5431 20.4386C25.4961 22.2852 28.9866 21.6147 30.4454 19.5592L33.4942 21.8851C33.4942 21.8851 31.2524 25.9632 25.0019 24.9299C18.7514 23.8967 17.3189 18.5765 18.1784 14.6414C19.0379 10.7062 23.1277 8.09451 27.6066 8.74304C32.0856 9.39157 34.9005 12.5551 34.4301 18.383H22.5499L23.3879 15.1514Z" fill="white"/>
<path d="M13.0835 0.833196V10.0995C11.7074 8.97604 9.93504 8.35106 8.09601 8.34075C3.62422 8.34075 0 12.0253 0 16.5672C0 21.1091 3.62422 24.7958 8.09601 24.7958C9.93349 24.7886 11.7057 24.1675 13.0835 23.0481V24.4199H17.2974V0L13.0835 0.833196ZM13.0835 18.0731C12.4771 19.8692 10.8034 21.1509 8.83136 21.1509C6.34836 21.1509 4.3357 19.0997 4.3357 16.5694C4.3357 14.039 6.34836 11.9901 8.83136 11.9901C10.8034 11.9901 12.4771 13.2806 13.0835 15.0679C13.4114 16.0409 13.4114 17.0825 13.0835 18.0555V18.0731Z" fill="white"/>
<path d="M53.4036 8.94531H49.1323V24.8068H53.4036V8.94531Z" fill="white"/>
<path d="M51.267 7.07665C52.811 7.07665 54.0627 5.92408 54.0627 4.50231C54.0627 3.08055 52.811 1.92798 51.267 1.92798C49.7229 1.92798 48.4712 3.08055 48.4712 4.50231C48.4712 5.92408 49.7229 7.07665 51.267 7.07665Z" fill="white"/>
<path d="M9.00687 18.1818C10.0883 18.1818 10.9649 17.3677 10.9649 16.3636C10.9649 15.3594 10.0883 14.5454 9.00687 14.5454C7.92547 14.5454 7.04883 15.3594 7.04883 16.3636C7.04883 17.3677 7.92547 18.1818 9.00687 18.1818Z" fill="white"/>
<path d="M95.0344 8.94531H90.7632V17.7873H95.0344V8.94531Z" fill="white"/>
<path d="M92.8978 24.8069C94.4419 24.8069 95.6936 23.6543 95.6936 22.2325C95.6936 20.8108 94.4419 19.6582 92.8978 19.6582C91.3538 19.6582 90.1021 20.8108 90.1021 22.2325C90.1021 23.6543 91.3538 24.8069 92.8978 24.8069Z" fill="white"/>
<path d="M73.3536 8.35167H65.611C64.9953 8.22235 64.3658 8.15745 63.7344 8.15821C58.9451 8.15821 55.063 11.8427 55.063 16.3846C55.063 20.9266 58.9451 24.6111 63.7344 24.6111C68.5237 24.6111 72.4082 20.9288 72.4082 16.3846C72.4124 14.8328 71.9478 13.3105 71.0664 11.9878H73.3536V8.35167ZM63.7535 20.7859C61.249 20.7859 59.2172 18.8073 59.2172 16.3429C59.2172 13.8785 61.2466 11.8999 63.7535 11.8999C66.2604 11.8999 68.2897 13.8785 68.2897 16.3429C68.2897 18.8073 66.2556 20.7859 63.7535 20.7859Z" fill="white"/>
<path d="M58.0401 25.9544L55.2969 28.8123C55.2969 28.8123 63.0849 35.8296 71.9401 29.0189L69.1802 25.9412C69.1802 25.9412 64.1975 31.0634 58.0401 25.9544Z" fill="url(#paint0_linear_8_23)"/>
<path d="M74.4062 8.80677V24.6353H78.6775V15.7295C78.6694 15.0417 78.844 14.3625 79.186 13.751C79.6635 12.9398 80.5206 12.0978 82.0892 12.2385C85.0211 12.5023 84.916 15.3162 84.916 15.3162V24.6419H89.266V14.5358C89.2742 13.5549 89.0663 12.5827 88.6548 11.6779C87.9386 10.1258 86.3796 8.3407 83.0538 8.53197C83.0538 8.53197 80.098 8.58912 78.8589 9.77626C78.8437 9.79145 78.8253 9.80357 78.8047 9.81187C78.7842 9.82016 78.762 9.82444 78.7396 9.82444C78.7171 9.82444 78.6949 9.82016 78.6744 9.81187C78.6538 9.80357 78.6354 9.79145 78.6202 9.77626L77.8514 8.85953L74.4062 8.80677Z" fill="white"/>
<path d="M97.1401 8.80677V24.6353H101.414V15.7295C101.405 15.0419 101.579 14.3627 101.92 13.751C102.397 12.9398 103.255 12.0978 104.825 12.2385C107.755 12.5023 107.65 15.3162 107.65 15.3162V24.6419H112V14.5358C112.009 13.5548 111.801 12.5824 111.389 11.6779C110.672 10.1258 109.113 8.3407 105.788 8.53197C105.788 8.53197 102.832 8.58912 101.595 9.77626C101.58 9.79296 101.561 9.80637 101.539 9.81556C101.517 9.82476 101.494 9.82952 101.47 9.82952C101.446 9.82952 101.422 9.82476 101.401 9.81556C101.379 9.80637 101.36 9.79296 101.345 9.77626L100.585 8.85953L97.1401 8.80677Z" fill="white"/>
</g>
<defs>
<linearGradient id="paint0_linear_8_23" x1="55.2969" y1="28.8958" x2="71.9401" y2="29.0386" gradientUnits="userSpaceOnUse">
<stop stop-color="#37F4F4"/>
<stop offset="1" stop-color="#FBD200"/>
</linearGradient>
<clipPath id="clip0_8_23">
<rect width="112" height="32" fill="white"/>
</clipPath>
</defs>
</svg>
